<svg width="42" height="39" xmlns="http://www.w3.org/2000/svg">

 <g>
  <title>background</title>
  <rect fill="none" id="canvas_background" height="41" width="44" y="-1" x="-1"/>
 </g>
 <g>
  <title>Layer 1</title>
  <g stroke="null" id="svg_2" fill="#FFF">
   <path stroke="null" id="svg_3" d="m36.261294,22.122762c1.407512,-4.493595 3.891358,-14.333269 4.719306,-17.829893c0.731354,-3.092056 0.938342,-4.247965 -0.386376,-4.233516c-1.11773,0.014449 -4.194939,1.329295 -4.788302,3.785601c-0.979739,4.089027 -3.063409,12.483815 -3.918956,15.489178c-0.938342,3.29434 -2.939217,3.987885 -5.46446,4.002334c-1.904281,0.014449 -3.063409,-0.115591 -3.339392,-1.285949c-0.082795,-0.361221 -0.372577,-0.621301 -0.717555,-0.621301l-3.228999,0c-0.344979,0 -0.64856,0.274528 -0.717555,0.621301c-0.262184,1.242602 -1.435111,1.285949 -3.339392,1.285949c-1.628299,0 -4.098345,-0.317875 -5.009088,-3.438829c-0.63476,-2.181778 -2.207862,-7.831282 -3.022012,-10.807747c-0.814149,-2.976465 -3.353191,-3.149851 -4.581315,-3.149851c-1.338517,0 -1.517905,0.216733 -0.731354,3.149851c0.772752,2.933119 2.746029,9.478452 3.932755,13.856456c1.186726,4.378004 5.271272,5.808442 7.879309,5.808442l4.401926,0c1.200525,0 1.93188,-0.317875 2.345854,-0.63575c0.275983,-0.216733 0.64856,-0.216733 0.924542,-0.014449c0.427773,0.317875 1.200525,0.650199 2.41485,0.650199l4.263934,0c3.629174,0.014449 6.996164,-2.297369 8.362279,-6.632027z"/>
   <circle stroke="null" id="svg_4" r="2.08367" cy="9.08989" cx="14.099874"/>
   <circle stroke="null" id="svg_5" r="2.083671" cy="9.08989" cx="20.875252"/>
   <circle stroke="null" id="svg_6" r="2.083671" cy="9.08989" cx="27.733425"/>
   <circle stroke="null" id="svg_7" r="2.08367" cy="16.95007" cx="14.099874"/>
   <circle stroke="null" id="svg_8" r="2.083671" cy="16.95007" cx="20.875252"/>
   <circle stroke="null" id="svg_9" r="2.083671" cy="16.95007" cx="27.733425"/>
   <circle stroke-width="2.5" id="svg_10" r="3" cy="34.3" cx="37.28" fill="transparent" stroke="white"/>
   <circle stroke-width="2.5" id="svg_10" r="3" cy="34.3" cx="4.28" fill="transparent" stroke="white"/>
  </g>
  <path d="m9.775865,35.982007c0.249993,0 0.74998,0 1.249968,0c0.499987,0 1.249968,0 1.999948,0c0.624984,0 1.12497,0 1.624958,0c0.37499,0 0.499987,0 0.624983,0c0.249994,0 0.37499,0 0.499989,0c0.124996,0 0.249992,0 0.499987,0c0.249992,0 0.624983,0 0.874977,0c0.37499,0 0.624983,0 0.749981,0c0.124996,0 0.249992,0 0.374989,0c0.124998,0 0.124998,0 0.249994,0c0.124996,0 0.143665,0.065716 0.249994,0c0.237757,-0.146942 0.249994,-0.374989 0.499987,-0.624981c0.249994,-0.249996 0.499987,-0.499989 0.499987,-0.624985c0,0 0,-0.124996 0,-0.374989c0,-0.125 0,-0.374992 0,-0.874977c0,0 0,-0.249996 0,-0.374992c0,-0.249992 0,-0.749981 0,-1.249966c0,-0.499989 0.114037,-1.003811 0.249994,-1.374966c0.231529,-0.632057 0.749979,-1.874952 0.999973,-2.124945l0.874977,-0.874977" id="svg_15" fill-opacity="null" stroke-opacity="null" stroke-width="null" stroke="null" fill="none"/>
 </g>
</svg>
