<svg width="399.7" height="375.63" xmlns="http://www.w3.org/2000/svg">
 <style type="text/css">.st0{fill:#FFFFFF;}</style>
 <g>
  <title>Layer 1</title>
   <g id="svg_3">
    <path id="svg_4" d="M19.549 0.357 C 11.518 2.867,4.934 9.261,0.600 18.760 C 0.006 20.061,0.014 355.904,0.608 357.180 C 2.552 361.359,3.506 363.168,3.969 363.552 C 4.267 363.799,4.511 364.171,4.511 364.377 C 4.511 365.905,11.622 371.866,16.165 374.147 L 19.361 375.752 200.000 375.752 L 380.639 375.752 383.507 374.388 C 387.834 372.329,395.489 365.973,395.489 364.438 C 395.489 364.212,395.827 363.720,396.241 363.346 C 396.654 362.972,396.992 362.438,396.992 362.160 C 396.992 361.882,397.162 361.654,397.368 361.654 C 397.575 361.654,397.744 361.316,397.744 360.902 C 397.744 360.489,397.900 360.150,398.090 360.150 C 398.281 360.150,398.554 359.601,398.698 358.929 C 398.841 358.257,399.151 357.469,399.386 357.179 C 400.068 356.334,399.991 20.049,399.307 18.572 C 399.030 17.972,398.565 17.002,398.273 16.417 C 397.982 15.832,397.744 15.113,397.744 14.819 C 397.744 14.526,397.575 14.286,397.368 14.286 C 397.162 14.286,396.992 14.058,396.992 13.780 C 396.992 13.502,396.654 12.968,396.241 12.594 C 395.827 12.220,395.489 11.717,395.489 11.476 C 395.489 10.101,387.642 3.589,383.647 1.649 L 380.639 0.188 200.564 0.125 C 101.523 0.091,20.066 0.195,19.549 0.357 M198.852 37.026 C 204.009 38.111,203.998 38.101,223.308 57.308 C 240.266 74.174,243.276 76.882,246.491 78.162 C 250.018 79.567,253.636 79.822,278.947 80.445 C 304.768 81.081,305.011 81.113,307.207 84.163 L 308.459 85.902 308.751 102.444 C 309.298 133.483,309.423 137.769,309.787 138.133 C 309.987 138.333,310.150 139.055,310.150 139.737 C 310.150 140.419,310.278 140.977,310.435 140.977 C 310.591 140.977,310.939 141.696,311.208 142.575 C 311.477 143.454,312.308 145.103,313.053 146.241 C 314.158 147.925,342.215 176.393,347.000 180.685 C 349.040 182.514,351.504 185.969,351.504 187.000 C 351.504 187.302,351.673 187.654,351.880 187.782 C 352.086 187.910,352.256 188.427,352.256 188.932 C 352.256 189.437,352.425 189.850,352.632 189.850 C 352.859 189.850,353.008 191.479,353.008 193.985 C 353.008 196.491,352.859 198.120,352.632 198.120 C 352.425 198.120,352.256 198.425,352.256 198.798 C 352.256 201.711,349.779 204.361,311.852 242.026 C 304.000 249.823,278.652 275.110,255.523 298.218 C 232.394 321.327,212.736 340.739,211.839 341.356 C 208.558 343.613,203.645 344.876,201.427 344.032 C 200.953 343.852,199.633 343.403,198.496 343.036 C 195.256 341.989,194.495 341.304,175.188 322.045 C 157.201 304.103,156.912 303.836,153.759 302.301 C 148.463 299.722,150.414 299.871,109.774 298.951 C 90.449 298.514,90.602 298.627,90.602 284.751 C 90.602 279.813,90.457 276.647,90.226 276.504 C 89.987 276.356,89.850 271.620,89.850 263.534 C 89.850 255.448,89.712 250.711,89.474 250.564 C 89.254 250.428,89.098 248.307,89.098 245.474 C 89.098 235.927,89.813 236.941,66.729 213.776 C 48.604 195.586,48.449 195.419,47.286 192.857 C 46.864 191.927,46.372 190.872,46.192 190.513 C 45.761 189.654,45.769 183.633,46.202 182.796 C 46.388 182.437,46.851 181.382,47.231 180.451 C 47.611 179.521,48.221 178.431,48.585 178.031 C 48.950 177.630,49.248 177.154,49.248 176.972 C 49.248 176.509,184.417 41.481,186.387 39.975 C 188.533 38.336,189.930 37.709,192.857 37.073 C 196.049 36.379,195.787 36.381,198.852 37.026 M194.737 72.682 C 193.424 73.077,179.042 87.254,107.337 158.835 C 81.267 184.860,83.083 182.764,83.083 186.826 C 83.083 190.932,82.352 190.031,100.147 207.877 C 115.719 223.494,117.669 225.801,117.669 228.607 C 117.669 228.966,117.837 229.317,118.043 229.386 C 118.275 229.464,118.554 235.565,118.780 245.489 C 119.334 269.802,118.777 269.004,135.414 269.333 C 150.088 269.623,159.063 270.082,160.338 270.606 C 165.030 272.536,165.522 272.967,183.459 290.906 C 198.438 305.887,198.125 305.639,202.087 305.639 C 206.119 305.639,202.536 308.995,261.842 249.656 L 315.977 195.490 316.110 192.287 C 316.314 187.376,317.173 188.495,299.974 171.252 C 278.120 149.340,280.874 156.240,279.869 120.877 C 279.758 116.955,279.547 113.656,279.401 113.546 C 279.255 113.436,278.856 112.838,278.514 112.218 C 277.250 109.923,275.388 109.049,271.733 109.035 C 269.936 109.028,268.361 108.853,268.233 108.647 C 268.085 108.407,263.161 108.271,254.699 108.271 C 246.237 108.271,241.313 108.134,241.165 107.895 C 241.038 107.688,240.496 107.519,239.961 107.519 C 236.507 107.519,234.337 105.732,218.106 89.516 C 209.657 81.075,202.253 73.912,201.654 73.599 C 198.977 72.198,197.152 71.956,194.737 72.682" class="st0"/>
  </g>
 </g>
</svg>
