<svg width="113.3" height="127.5" xmlns="http://www.w3.org/2000/svg">
 <style type="text/css">.st0{fill:#FFFFFF;}</style>
 <g>
  <title>Layer 1</title>
  <g id="svg_1">
   <g id="svg_3">
    <path id="svg_4" d="m72,124.3l37.4,-8.1c0,0 -13.5,-91.3 -13.6,-91.9c-0.1,-0.6 -0.6,-1 -1.1,-1c-0.5,0 -10,-0.7 -10,-0.7s-6.6,-6.6 -7.4,-7.3c-0.2,-0.2 -0.4,-0.3 -0.6,-0.4l-4.7,109.4z" class="st0"/>
    <path id="svg_5" d="m75.1,14.7c-0.1,0 -0.3,0.1 -0.4,0.1c-0.1,0 -1.5,0.4 -3.7,1.1c-2.2,-6.4 -6.1,-12.3 -13,-12.3c-0.2,0 -0.4,0 -0.6,0c-2,-2.5 -4.4,-3.6 -6.5,-3.6c-16.1,0 -23.8,20.1 -26.2,30.3c-6.2,1.9 -10.7,3.3 -11.2,3.5c-3.5,1.1 -3.6,1.2 -4,4.5c-0.4,2.4 -9.5,72.9 -9.5,72.9l70.3,13.2l4.8,-109.7zm-18.3,4.9c0,0.2 0,0.5 0,0.7c-3.9,1.2 -8.2,2.5 -12.4,3.8c2.4,-9.2 6.9,-13.7 10.8,-15.4c1,2.6 1.6,6.1 1.6,10.9zm-6.4,-15.3c0.7,0 1.4,0.2 2.1,0.7c-5.1,2.4 -10.7,8.5 -13,20.7c-3.4,1.1 -6.7,2.1 -9.8,3c2.7,-9.3 9.2,-24.4 20.7,-24.4zm2.8,54.3c0,0 -4.2,-2.2 -9.2,-2.2c-7.5,0 -7.8,4.7 -7.8,5.9c0,6.4 16.8,8.9 16.8,24c0,11.9 -7.5,19.5 -17.7,19.5c-12.2,0 -18.4,-7.6 -18.4,-7.6l3.3,-10.8c0,0 6.4,5.5 11.8,5.5c3.5,0 5,-2.8 5,-4.8c0,-8.4 -13.8,-8.8 -13.8,-22.6c0,-11.6 8.3,-22.9 25.2,-22.9c6.5,0 9.7,1.9 9.7,1.9l-4.9,14.1zm6.4,-50.6c3.6,0.4 5.9,4.5 7.4,9.1c-1.8,0.6 -3.8,1.2 -6,1.9c0,-0.4 0,-0.8 0,-1.3c0,-3.9 -0.5,-7.1 -1.4,-9.7z" class="st0"/>
   </g>
  </g>
 </g>
</svg>
