<svg version="1" xmlns="http://www.w3.org/2000/svg" width="1766.667" height="1766.667" viewBox="0 0 1325.000000 1325.000000"><path d="M579.7 73.6c-.1.1-24.3.5-53.7.9-29.4.4-59.1.8-66 1-27.9.7-57.1 1.6-67 2-5.8.2-16.3.7-23.5 1-24.2 1-37 1.6-43.5 2-3.6.2-11 .7-16.5 1-5.5.3-12.7.8-16 1.1-3.3.3-9.4.7-13.5.9-4.1.2-9.3.6-11.5.9-2.2.2-7.6.7-12 1.1-4.4.3-9.6.8-11.5 1.1-1.9.2-5.5.6-8 .8-2.5.3-6.4.7-8.7 1-2.4.3-6 .8-8 1.1l-6.3.9c-1.4.3-4.7.7-7.5 1.1-4.5.5-12.5 1.8-18 2.9-11.4 2.3-32 9.4-44.7 15.5C82.6 139.3 34.4 199.5 21.1 263c-1.8 8.5-2.3 11.4-3.6 21-.2 1.4-.7 6.5-1 11.5-.4 4.9-.8 10.8-1 13-.2 2.2-.7 7.6-1 12-.3 4.4-.8 10.2-1 13-.6 8-1.5 19.4-2 28-.3 4.4-.7 11.1-1 15-.7 10-1.4 20.6-2 31-.3 4.9-.7 11.7-1 15-.2 3.3-.7 11.2-1 17.5-.3 6.3-.8 15.8-1.1 21-.6 10.9-1.3 27-2.9 65-2 49.4-2.7 170.3-1.2 215.5 1.2 35.9 2.2 57.3 3.2 74 .2 3.8.7 11.5 1 17 .6 11.3 1.4 22.4 2 30.5.3 3 .7 8.4 1 12 .3 3.6.7 9.4 1 13 .3 3.6.7 8.5 1 11 .3 2.5.7 7.2.9 10.5.3 3.3.7 8 1 10.5.3 2.5.8 7.2 1.1 10.5 1 9.5 1.6 14.7 2.1 18.5.3 1.9.7 5 1 6.9 1.2 8.8 6 25.1 11.6 39.6 6.2 15.8 13.9 29.5 28.5 50.5 9.6 13.8 29.1 33 50.3 49.3 5.6 4.4 18.3 12 28.5 17.2 24.7 12.8 49.5 20.1 77 22.9 3.3.3 7.1.8 8.5 1.1 2.8.4 9.3 1.1 19.5 2 3.9.4 8.8.8 11 1 2.2.2 8.1.6 13 .9 5 .4 11.7.9 15 1.1 3.3.3 10.3.7 15.5 1 5.2.3 13.3.7 18 1 33.4 1.9 88.1 3.7 162.5 5.2 75.3 1.6 376.1.8 432.5-1.2 28.6-1 45-1.6 49-2 2.5-.2 8.6-.7 13.5-1.1 26.5-2.3 43.9 0 68 8.9 6.1 2.2 11.1 4.4 11.3 4.9.2.4 1 .8 1.7.8 1.6 0 22 10.5 31.4 16.2 3.4 2.1 6.5 3.8 6.7 3.8.2 0 3.8 2.1 8.1 4.6 61 36.3 105.3 57.7 129.4 62.5 8.4 1.6 20.9 1.8 25.7.4 2.3-.7 4.4-1.3 4.5-1.3 1.1.3 5.9-2.1 9.8-4.9 9.4-6.8 18.1-23.2 20.4-38.5.4-2.3.8-4.5 1-4.8.2-.3.6-3 1-6 .3-3 .8-6.9 1-8.5 1-7.8 1.5-12.5 2.1-19 .3-3.9.8-7.8 1-8.9.2-1 .6-5.3.9-9.5.4-4.2.8-8.7 1-10.1.2-1.4.7-5.7 1-9.5.4-3.9.8-8.4 1-10.1.2-1.7.7-6.6 1-11 .4-4.3.8-9 1-10.4.2-1.4.7-5.9 1-10 .3-4.1.8-8.6 1-10 .2-1.4.7-6.6 1-11.5.4-5 .8-10.6 1-12.5.2-1.9.7-7.3 1-12 .4-4.7.8-10.2 1-12.2.2-2 .7-7.2 1-11.5.3-4.3.7-10.1 1-12.8.3-2.8.7-8.6 1-13 .3-4.4.7-10.5 1-13.5.3-3 .7-9.3 1-14 .3-4.7.8-11 1-14 .2-3 .7-10.5 1-16.5.4-6.1.8-12.6 1-14.5.2-1.9.6-9.1 1-16 .3-6.9.8-15.4 1-19 .3-3.6.7-11.2 1-17 .3-5.8.7-15.5 1-21.5 1.2-25 1.5-30.7 2.1-46.5 2.4-63.2 2.9-97.8 2.9-183 0-75.9-.3-99.7-2-146-.9-25.8-2.9-63.6-4.1-79.5-.2-3.3-.6-10.1-.9-15-.3-5-.7-11.5-1-14.5-.4-5.6-1.1-13.9-2-24.5-.3-3.3-.7-8-.9-10.5-.3-2.5-.8-7.7-1.1-11.5-.7-7.2-.9-9.1-2-18.5-.4-3-.8-7.1-1-9-.4-4.8-1.5-11.7-2.5-16.5-.5-2.2-1.2-5.6-1.5-7.5-1.3-7.8-10-31.2-16-43.5-28-56.7-80.4-100.7-140-117.5-9.9-2.7-17.2-4.3-25.5-5.4-6.8-1-28.6-3.5-34.5-4.1-6.4-.6-13.5-1.3-20-2-2.2-.3-7.6-.7-12-1-4.4-.3-10-.7-12.5-1-2.5-.2-8.5-.7-13.5-1-4.9-.3-11.5-.8-14.5-1-11-.7-24.7-1.6-33-2-55.4-2.9-82.5-3.9-160-6-40.7-1.1-241.4-2.6-242.3-1.9zM669.9 268c6.8 3.4 10.8 9.5 24.1 36.5 19.5 39.7 35.7 72.7 53.2 108.5 29.6 60.5 26.7 55.4 31.3 56.2 2.2.3 6.3.9 9 1.2 2.8.4 6 .8 7.3 1.1 1.2.2 10.7 1.6 21 3s19.8 2.8 21.2 3c1.4.2 4.5.6 7 1 8.3 1.2 9.5 1.4 14 2 2.5.3 7.2 1 10.5 1.5s7.6 1.1 9.5 1.4c1.9.2 6.9.9 11 1.5s9.3 1.4 11.5 1.7c2.2.3 5.3.8 6.8 1 3.3.4 8 1.1 20.7 2.9 5.2.8 11.8 1.7 14.5 2 2.8.4 5.7.8 6.5 1 .8.2 4.2.7 7.5 1 3.3.4 6.7.8 7.6 1.1.9.3 3.6.7 6 .9 2.4.3 6.8 1 9.6 1.6 2.9.5 5.5 1 5.8 1 1.7-.3 10.7 5.3 13.3 8.3 7.8 9 4.8 19.6-9.7 34.3-7.8 7.8-52.4 51.3-67.1 65.3-3 2.9-16.9 16.3-30.9 29.9-13.9 13.5-30.2 29.3-36.2 35.1L844 682.5l4.5 26c2.5 14.3 5 28.2 5.5 31 .6 2.7 1.2 6.3 1.4 8 .6 4.3 1.5 9.8 3.3 19.5 1.7 9.3 1.5 8.6 3.8 22 .9 5.2 1.8 10.6 2.1 12 .5 3 6.4 36.6 6.9 39.5.2 1.1 1.3 7.4 2.5 14s2.4 13.7 2.6 15.7c.3 2 1.1 6.5 1.9 10 .7 3.5 1.2 9.9 1.1 14.3-.1 10.2-3.4 16.6-9.9 19.6-10 4.5-15.5 2.7-55.2-18.6-3.3-1.8-10.9-5.8-17-9-6-3.2-14.4-7.6-18.5-9.8-4.1-2.1-11.8-6.2-17-8.9-10.4-5.5-21.2-11.3-30.5-16.3-3.3-1.8-12.3-6.5-20-10.5-7.7-4-14.4-7.6-15-8-.5-.4-8.5-4.6-17.7-9.4l-16.7-8.7-3.8 1.9c-2.1 1-7.4 3.8-11.8 6.1-4.4 2.4-12.3 6.6-17.5 9.4-5.2 2.7-12.6 6.7-16.5 8.7-25.9 13.7-37.7 20-51.5 27.2-6.3 3.3-15.1 7.9-19.5 10.3-24.2 12.9-39.2 20.8-49 26-6 3.2-11.4 6.1-12 6.5-3 2-11.8 4.4-16.9 4.6-9.4.4-15-3.4-18.1-12.1-2.2-6.2-1.7-13.9 2.1-34.5.2-1.4.7-4.1 1-6 .3-1.9 1.8-10.7 3.4-19.5 1.6-8.8 3.1-18 3.5-20.5.4-2.5 1.3-7.9 2.1-12s1.7-9.1 2-11c.2-1.9 1.3-8.2 2.3-14 1.1-5.8 2.2-12.1 2.5-14 .3-1.9.8-4.6 1.1-6 .3-1.4.7-4.1 1-6 .3-1.9.7-4.6 1-6 .3-1.4 1.2-6.6 2-11.5.9-5 2.2-12.4 3-16.5.8-4.1 1.7-9.1 2-11 .2-1.9.7-4.6.9-6 .3-1.3.8-4 1.1-6 .3-2 .7-4.5.9-5.5.2-1.1.7-4 1.1-6.5.4-2.5.9-5.4 1.1-6.5.3-1.5-2.6-4.9-11.3-13.3-6.5-6.3-22.8-22.1-36.3-35.2-13.5-13.1-27.4-26.6-31-30.1-16.9-16.2-61-59.2-67.2-65.4-12.5-12.5-15.8-23.6-9.4-31.9 5.3-7 12.2-9.8 29.6-12.1 2.5-.3 5.6-.8 7-1 1.4-.2 4.5-.7 7-1 2.5-.3 5.6-.8 7-1 1.4-.2 4.3-.7 6.5-1 5.2-.6 17-2.3 21.5-3 1.9-.2 14.5-2 28-3.9 29.3-4.2 31.8-4.6 35-5.1 1.4-.3 4.8-.7 7.5-1 2.8-.3 6.1-.8 7.5-1 3.7-.7 7.9-1.3 13.5-2 4.2-.5 18.9-2.6 27.5-4 1.4-.2 5-.7 8-1 3-.4 6.4-.9 7.5-1.1 1.1-.2 4-.6 6.4-.9 2.4-.3 4.8-.8 5.3-1.1.5-.3 3.9-6.9 7.7-14.7 3.8-7.8 14-28.6 22.6-46.2 33.6-68.5 36.9-75 37-75.5.1-.3 6-12.4 13.2-27 7.6-15.4 14.6-28.3 16.8-30.8 6.9-7.9 15.6-10.3 23.4-6.2z"/></svg>